<?xml version="1.0" encoding="UTF-8" standalone="no"?>
<!DOCTYPE svg PUBLIC "-//W3C//DTD SVG 1.1//EN" "http://www.w3.org/Graphics/SVG/1.1/DTD/svg11.dtd">
<svg width="100%" height="100%" viewBox="0 0 1280 720" version="1.1" xmlns="http://www.w3.org/2000/svg" xmlns:xlink="http://www.w3.org/1999/xlink" xml:space="preserve" xmlns:serif="http://www.serif.com/" style="fill-rule:evenodd;clip-rule:evenodd;stroke-miterlimit:10;">
    <g transform="matrix(1.19205,0,0,1.19205,159.012,111.851)">
        <g transform="matrix(1,0,0,1,-463.5,-475)">
            <g opacity="0.2">
                <path d="M463.678,464.195C435.331,463.196 412.183,467.174 411.975,473.08C411.767,478.985 434.578,484.582 462.924,485.581C491.271,486.58 514.419,482.602 514.627,476.696C514.835,470.791 492.024,465.194 463.678,464.195Z" style="fill:none;fill-rule:nonzero;stroke:url(#_Linear1);stroke-width:1px;"/>
                <path d="M463.463,463.8C432.837,463.324 407.933,467.888 407.838,473.994C407.743,480.099 432.493,485.434 463.119,485.91C493.745,486.385 518.649,481.822 518.744,475.716C518.839,469.611 494.089,464.275 463.463,463.8Z" style="fill:none;fill-rule:nonzero;stroke:url(#_Linear2);stroke-width:1px;"/>
                <path d="M463.108,463.41C430.015,463.527 403.206,468.732 403.229,475.036C403.251,481.339 430.096,486.354 463.189,486.237C496.282,486.119 523.091,480.914 523.069,474.611C523.047,468.307 496.201,463.293 463.108,463.41Z" style="fill:none;fill-rule:nonzero;stroke:url(#_Linear3);stroke-width:1px;"/>
                <path d="M463.191,463.089C427.549,463.873 398.771,469.776 398.914,476.274C399.057,482.773 428.066,487.405 463.708,486.622C499.35,485.838 528.128,479.935 527.985,473.436C527.843,466.938 498.833,462.306 463.191,463.089Z" style="fill:none;fill-rule:nonzero;stroke:url(#_Linear4);stroke-width:1px;"/>
                <path d="M462.789,462.66C424.507,464.189 393.69,470.854 393.958,477.546C394.225,484.238 425.475,488.423 463.757,486.893C502.039,485.363 532.855,478.698 532.588,472.007C532.321,465.315 501.07,461.13 462.789,462.66Z" style="fill:none;fill-rule:nonzero;stroke:url(#_Linear5);stroke-width:1px;"/>
                <path d="M462.575,462.435C421.476,464.799 388.479,472.294 388.875,479.177C389.27,486.059 422.909,489.723 464.008,487.359C505.108,484.996 538.105,477.501 537.709,470.618C537.313,463.735 503.675,460.072 462.575,462.435Z" style="fill:none;fill-rule:nonzero;stroke:url(#_Linear6);stroke-width:1px;"/>
                <path d="M462.53,461.897C418.533,465.178 383.3,473.65 383.834,480.819C384.369,487.988 420.469,491.14 464.467,487.859C508.464,484.577 543.697,476.105 543.163,468.936C542.628,461.767 506.528,458.615 462.53,461.897Z" style="fill:none;fill-rule:nonzero;stroke:url(#_Linear7);stroke-width:1px;"/>
                <path d="M462.237,461.42C415.162,465.721 377.552,475.25 378.233,482.704C378.914,490.157 417.628,492.713 464.703,488.411C511.778,484.11 549.387,474.581 548.706,467.127C548.025,459.674 509.312,457.119 462.237,461.42Z" style="fill:none;fill-rule:nonzero;stroke:url(#_Linear8);stroke-width:1px;"/>
                <path d="M461.808,460.926C411.675,466.334 371.71,476.989 372.544,484.725C373.379,492.46 414.697,494.347 464.83,488.938C514.964,483.53 554.929,472.875 554.094,465.139C553.26,457.404 511.942,455.517 461.808,460.926Z" style="fill:none;fill-rule:nonzero;stroke:url(#_Linear9);stroke-width:1px;"/>
                <path d="M461.601,460.187C408.237,466.806 365.782,478.668 366.776,486.683C367.77,494.697 411.837,495.829 465.201,489.21C518.566,482.591 561.02,470.728 560.026,462.714C559.032,454.699 514.966,453.568 461.601,460.187Z" style="fill:none;fill-rule:nonzero;stroke:url(#_Linear10);stroke-width:1px;"/>
                <path d="M461.008,459.634C404.241,467.59 359.174,480.84 360.35,489.228C361.526,497.616 408.498,497.967 465.266,490.011C522.033,482.055 567.1,468.805 565.924,460.417C564.748,452.029 517.776,451.678 461.008,459.634Z" style="fill:none;fill-rule:nonzero;stroke:url(#_Linear11);stroke-width:1px;"/>
                <path d="M460.94,458.935C400.804,468.316 353.162,483.02 354.528,491.778C355.894,500.535 405.751,500.03 465.887,490.649C526.023,481.268 573.666,466.564 572.3,457.806C570.934,449.048 521.076,449.554 460.94,458.935Z" style="fill:none;fill-rule:nonzero;stroke:url(#_Linear12);stroke-width:1px;"/>
                <path d="M460.658,458.427C396.988,469.368 346.644,485.632 348.212,494.756C349.78,503.879 402.665,502.406 466.335,491.466C530.005,480.526 580.348,464.261 578.781,455.138C577.213,446.014 524.328,447.487 460.658,458.427Z" style="fill:none;fill-rule:nonzero;stroke:url(#_Linear13);stroke-width:1px;"/>
                <path d="M460.075,457.759C392.8,470.378 339.706,488.299 341.485,497.785C343.265,507.271 399.244,504.731 466.519,492.111C533.793,479.492 586.888,461.571 585.108,452.085C583.329,442.599 527.349,445.139 460.075,457.759Z" style="fill:none;fill-rule:nonzero;stroke:url(#_Linear14);stroke-width:1px;"/>
                <path d="M459.623,456.791C388.588,471.23 332.641,490.993 334.662,500.934C336.682,510.875 395.905,507.229 466.94,492.791C537.975,478.352 593.923,458.589 591.902,448.648C589.881,438.707 530.658,442.353 459.623,456.791Z" style="fill:none;fill-rule:nonzero;stroke:url(#_Linear15);stroke-width:1px;"/>
                <path d="M459.209,455.845C384.458,472.216 325.722,493.989 328.018,504.475C330.315,514.961 392.774,510.191 467.526,493.819C542.277,477.448 601.013,455.675 598.717,445.189C596.42,434.702 533.96,439.473 459.209,455.845Z" style="fill:none;fill-rule:nonzero;stroke:url(#_Linear16);stroke-width:1px;"/>
                <path d="M458.502,454.88C379.975,473.323 318.416,497.213 321.006,508.239C323.595,519.265 389.353,513.253 467.881,494.81C546.408,476.366 607.967,452.477 605.377,441.45C602.788,430.424 537.029,436.436 458.502,454.88Z" style="fill:none;fill-rule:nonzero;stroke:url(#_Linear17);stroke-width:1px;"/>
                <path d="M457.943,453.932C375.595,474.587 311.189,500.701 314.089,512.26C316.988,523.82 386.094,516.447 468.442,495.792C550.79,475.138 615.197,449.024 612.297,437.464C609.398,425.905 540.291,433.278 457.943,453.932Z" style="fill:none;fill-rule:nonzero;stroke:url(#_Linear18);stroke-width:1px;"/>
                <path d="M457.514,452.735C371.209,475.768 303.881,504.315 307.131,516.494C310.382,528.674 382.981,519.875 469.286,496.841C555.591,473.808 622.92,445.261 619.669,433.082C616.418,420.902 543.819,429.701 457.514,452.735Z" style="fill:none;fill-rule:nonzero;stroke:url(#_Linear19);stroke-width:1px;"/>
                <path d="M456.737,451.642C366.621,477.167 296.504,508.23 300.127,521.022C303.751,533.815 379.742,523.493 469.859,497.968C559.975,472.444 630.092,441.381 626.469,428.589C622.845,415.796 546.854,426.118 456.737,451.642Z" style="fill:none;fill-rule:nonzero;stroke:url(#_Linear20);stroke-width:1px;"/>
                <path d="M455.935,450.348C361.883,478.553 288.941,512.431 293.015,526.015C297.089,539.599 376.636,527.746 470.688,499.541C564.74,471.335 637.682,437.457 633.608,423.873C629.534,410.289 549.987,422.142 455.935,450.348Z" style="fill:none;fill-rule:nonzero;stroke:url(#_Linear21);stroke-width:1px;"/>
                <path d="M455.135,448.994C357.209,480.016 281.49,516.733 286.011,531.004C290.531,545.275 373.581,531.696 471.506,500.674C569.432,469.653 645.151,432.936 640.631,418.665C636.11,404.394 553.06,417.973 455.135,448.994Z" style="fill:none;fill-rule:nonzero;stroke:url(#_Linear22);stroke-width:1px;"/>
                <path d="M454.16,447.631C352.44,481.624 274.078,521.447 279.135,536.579C284.191,551.711 370.752,536.422 472.472,502.429C574.193,468.437 652.555,428.613 647.498,413.481C642.442,398.349 555.881,413.639 454.16,447.631Z" style="fill:none;fill-rule:nonzero;stroke:url(#_Linear23);stroke-width:1px;"/>
                <path d="M453.07,445.662C347.53,482.795 266.557,525.927 272.212,541.999C277.867,558.072 368.008,540.999 473.548,503.866C579.088,466.733 660.06,423.602 654.405,407.529C648.75,391.457 558.609,408.53 453.07,445.662Z" style="fill:none;fill-rule:nonzero;stroke:url(#_Linear24);stroke-width:1px;"/>
                <path d="M452.048,444.079C342.88,484.486 259.48,531.018 265.77,548.012C272.06,565.006 365.658,546.027 474.827,505.62C583.995,465.213 667.395,418.681 661.105,401.686C654.815,384.692 561.217,403.672 452.048,444.079Z" style="fill:none;fill-rule:nonzero;stroke:url(#_Linear25);stroke-width:1px;"/>
                <path d="M450.535,442.302C337.732,486.19 251.99,536.427 259.025,554.509C266.06,572.59 363.208,551.67 476.011,507.781C588.815,463.892 674.557,413.655 667.522,395.574C660.487,377.492 563.338,398.413 450.535,442.302Z" style="fill:none;fill-rule:nonzero;stroke:url(#_Linear26);stroke-width:1px;"/>
                <path d="M449.082,440.098C332.839,487.589 244.977,541.683 252.836,560.92C260.696,580.157 361.3,557.253 477.543,509.761C593.786,462.27 681.648,408.176 673.789,388.939C665.93,369.702 565.325,392.607 449.082,440.098Z" style="fill:none;fill-rule:nonzero;stroke:url(#_Linear27);stroke-width:1px;"/>
                <path d="M447.462,437.587C327.893,488.855 238.104,547.072 246.914,567.619C255.724,588.165 359.796,563.261 479.365,511.994C598.935,460.726 688.723,402.51 679.914,381.963C671.104,361.416 567.032,386.32 447.462,437.587Z" style="fill:none;fill-rule:nonzero;stroke:url(#_Linear28);stroke-width:1px;"/>
                <path d="M445.611,435.379C323.017,490.537 231.596,552.945 241.416,574.769C251.235,596.593 358.577,569.57 481.17,514.411C603.763,459.253 695.184,396.846 685.365,375.022C675.545,353.197 568.204,380.22 445.611,435.379Z" style="fill:none;fill-rule:nonzero;stroke:url(#_Linear29);stroke-width:1px;"/>
                <path d="M443.519,432.713C318.036,491.946 225.241,558.878 236.255,582.211C247.269,605.545 357.922,576.443 483.405,517.21C608.887,457.978 701.683,391.045 690.669,367.712C679.654,344.379 569.002,373.481 443.519,432.713Z" style="fill:none;fill-rule:nonzero;stroke:url(#_Linear30);stroke-width:1px;"/>
                <path d="M440.894,429.759C312.743,493.22 218.883,564.913 231.252,589.89C243.621,614.867 357.535,583.669 485.685,520.208C613.836,456.747 707.696,385.054 695.327,360.077C682.958,335.1 569.045,366.298 440.894,429.759Z" style="fill:none;fill-rule:nonzero;stroke:url(#_Linear31);stroke-width:1px;"/>
                <path d="M438.121,426.669C307.548,494.508 212.924,571.112 226.774,597.768C240.623,624.425 357.701,591.04 488.274,523.2C618.847,455.361 713.47,378.757 699.621,352.101C685.771,325.444 568.694,358.83 438.121,426.669Z" style="fill:none;fill-rule:nonzero;stroke:url(#_Linear32);stroke-width:1px;"/>
                <path d="M434.969,423.103C302.41,495.383 207.601,577.179 223.208,605.801C238.814,634.422 358.925,599.031 491.485,526.752C624.044,454.472 718.852,372.676 703.246,344.054C687.64,315.432 567.528,350.824 434.969,423.103Z" style="fill:none;fill-rule:nonzero;stroke:url(#_Linear33);stroke-width:1px;"/>
                <path d="M431.546,419.407C297.266,496.275 202.611,583.395 220.128,613.995C237.645,644.595 360.7,607.086 494.98,530.218C629.26,453.35 723.915,366.23 706.398,335.63C688.882,305.03 565.826,342.538 431.546,419.407Z" style="fill:none;fill-rule:nonzero;stroke:url(#_Linear34);stroke-width:1px;"/>
                <path d="M427.711,415.536C292.092,497.106 198.158,589.845 217.903,622.673C237.649,655.502 363.596,615.989 499.215,534.419C634.834,452.849 728.769,360.11 709.023,327.281C689.278,294.452 563.33,333.965 427.711,415.536Z" style="fill:none;fill-rule:nonzero;stroke:url(#_Linear35);stroke-width:1px;"/>
                <path d="M422.978,410.835C286.376,497.198 193.728,595.822 216.043,631.117C238.358,666.412 367.184,625.013 503.786,538.649C640.388,452.285 733.035,353.662 710.721,318.367C688.406,283.072 559.579,324.471 422.978,410.835Z" style="fill:none;fill-rule:nonzero;stroke:url(#_Linear36);stroke-width:1px;"/>
                <path d="M417.639,406.185C280.536,497.396 189.824,602.048 215.027,639.932C240.23,677.816 371.805,634.585 508.907,543.374C646.01,452.163 736.723,347.511 711.52,309.628C686.317,271.744 554.742,314.974 417.639,406.185Z" style="fill:none;fill-rule:nonzero;stroke:url(#_Linear37);stroke-width:1px;"/>
                <path d="M411.54,401.086C274.342,497.229 186.261,608.187 214.804,648.919C243.347,689.651 377.706,644.732 514.904,548.589C652.102,452.447 740.183,341.488 711.64,300.757C683.097,260.025 548.738,304.944 411.54,401.086Z" style="fill:none;fill-rule:nonzero;stroke:url(#_Linear38);stroke-width:1px;"/>
                <path d="M404.901,395.789C268.118,496.874 183.426,614.262 215.736,657.981C248.046,701.701 385.122,655.198 521.905,554.112C658.688,453.027 743.38,335.64 711.07,291.92C678.76,248.2 541.684,294.704 404.901,395.789Z" style="fill:none;fill-rule:nonzero;stroke:url(#_Linear39);stroke-width:1px;"/>
                <path d="M396.99,389.615C261.112,495.631 180.722,619.717 217.434,666.77C254.145,713.822 394.057,666.023 529.935,560.007C665.812,453.992 746.202,329.905 709.49,282.853C672.779,235.8 532.867,283.6 396.99,389.615Z" style="fill:none;fill-rule:nonzero;stroke:url(#_Linear40);stroke-width:1px;"/>
                <path d="M387.952,383.467C253.493,494.403 178.281,625.286 219.96,675.803C261.639,726.32 404.427,677.341 538.886,566.405C673.345,455.47 748.558,324.586 706.879,274.069C665.2,223.552 522.411,272.531 387.952,383.467Z" style="fill:none;fill-rule:nonzero;stroke:url(#_Linear41);stroke-width:1px;"/>
                <path d="M377.538,376.532C245.006,492.322 176.017,630.198 223.448,684.486C270.878,738.775 416.767,688.918 549.299,573.128C681.831,457.338 750.82,319.462 703.389,265.174C655.959,210.885 510.07,260.742 377.538,376.532Z" style="fill:none;fill-rule:nonzero;stroke:url(#_Linear42);stroke-width:1px;"/>
                <path d="M365.53,369.323C235.439,489.893 173.774,634.888 227.8,693.18C281.825,751.472 431.081,700.987 561.173,580.418C691.264,459.849 752.929,314.853 698.903,256.561C644.878,198.269 495.622,248.754 365.53,369.323Z" style="fill:none;fill-rule:nonzero;stroke:url(#_Linear43);stroke-width:1px;"/>
                <path d="M352.007,361.779C224.805,487.072 171.605,639.32 233.18,701.834C294.756,764.347 447.791,713.454 574.993,588.16C702.195,462.866 755.395,310.618 693.82,248.105C632.244,185.591 479.209,236.485 352.007,361.779Z" style="fill:none;fill-rule:nonzero;stroke:url(#_Linear44);stroke-width:1px;"/>
                <path d="M336.225,353.648C212.391,483.51 168.917,643.055 239.122,710.001C309.327,776.948 466.627,725.945 590.461,596.083C714.294,466.221 757.769,306.676 687.564,239.729C617.358,172.783 460.059,223.786 336.225,353.648Z" style="fill:none;fill-rule:nonzero;stroke:url(#_Linear45);stroke-width:1px;"/>
                <path d="M318.447,345.374C198.478,479.606 166.109,646.413 246.149,717.949C326.189,789.484 488.328,738.658 608.298,604.426C728.267,470.194 760.636,303.387 680.596,231.851C600.556,160.316 438.417,211.142 318.447,345.374Z" style="fill:none;fill-rule:nonzero;stroke:url(#_Linear46);stroke-width:1px;"/>
                <path d="M298.025,336.587C182.249,475.089 162.45,649.271 253.802,725.634C345.154,801.997 513.065,751.624 628.841,613.122C744.617,474.619 764.417,300.437 673.064,224.074C581.712,147.711 413.801,198.085 298.025,336.587Z" style="fill:none;fill-rule:nonzero;stroke:url(#_Linear47);stroke-width:1px;"/>
                <path d="M274.751,327.907C163.536,470.486 157.8,651.919 261.938,733.149C366.076,814.379 540.654,764.647 651.868,622.068C763.083,479.49 768.82,298.057 664.681,216.827C560.543,135.597 385.965,185.329 274.751,327.907Z" style="fill:none;fill-rule:nonzero;stroke:url(#_Linear48);stroke-width:1px;"/>
                <path d="M248.677,318.922C142.373,465.305 152.384,653.823 271.037,739.988C389.689,826.153 572.052,777.337 678.355,630.954C784.658,484.571 774.647,296.053 655.995,209.888C537.342,123.723 354.98,172.539 248.677,318.922Z" style="fill:none;fill-rule:nonzero;stroke:url(#_Linear49);stroke-width:1px;"/>
                <path d="M218.727,310.013C117.501,460.088 144.921,655.594 279.972,746.686C415.024,837.779 606.565,789.965 707.791,639.889C809.018,489.814 781.597,294.309 646.546,203.216C511.495,112.123 319.953,159.938 218.727,310.013Z" style="fill:none;fill-rule:nonzero;stroke:url(#_Linear50);stroke-width:1px;"/>
                <path d="M627.214,191.019C470.449,100.51 269.995,154.222 179.486,310.987C88.978,467.752 142.69,668.207 299.455,758.715C456.22,849.223 656.674,795.512 747.183,638.747C837.691,481.982 783.979,281.527 627.214,191.019Z" style="fill:none;fill-rule:nonzero;stroke:url(#_Linear51);stroke-width:1px;"/>
            </g>
        </g>
    </g>
    <g transform="matrix(0.156063,0,0,0.156063,940.419,409.716)">
        <g opacity="0.05">
            <g transform="matrix(1,0,0,1,-771.5,-1249.6)">
                <g id="Layer_2">
                    <g id="svg8">
                        <g id="layer5">
                            <g id="g1627">
                                <path id="path1599" d="M0,1361.05C271.87,1505.43 555.56,1656.56 774.67,1773.5L1543,1361.05C1264.8,1774.34 1033,2118.41 774.67,2499.2C515.88,2119.25 230.08,1700 0,1361.05ZM29.55,1247.05L775.51,849L1511.76,1244.14L775.93,1642.63L29.55,1247.05ZM774.67,721.47L0,1129.28L771.29,0L1543,1131.81L774.67,721.47Z" style="fill:rgb(58,184,58);fill-rule:nonzero;"/>
                                <path id="path1593" d="M774.67,1773.5L1543,1361.05C1264.8,1774.34 774.67,2499.2 774.67,2499.2L774.67,1773.5ZM775.51,849L1511.76,1244.14L775.93,1642.63L775.51,849ZM774.67,721.5L771.29,0L1543,1131.81L774.67,721.5Z" style="fill:rgb(11,131,17);fill-rule:nonzero;"/>
                                <path id="path1603" d="M29.55,1247.06L775.55,1308.28L1511.8,1244.53L775.93,1643.05L29.55,1247.06Z" style="fill:rgb(11,131,17);fill-rule:nonzero;"/>
                                <path id="path1606" d="M775.51,1308.28L1511.76,1244.53L775.93,1643.05L775.51,1308.28Z" style="fill:rgb(20,103,20);fill-rule:nonzero;"/>
                            </g>
                        </g>
                    </g>
                </g>
            </g>
        </g>
    </g>
    <defs>
        <linearGradient id="_Linear1" x1="0" y1="0" x2="1" y2="0" gradientUnits="userSpaceOnUse" gradientTransform="matrix(0.754,-21.386,21.386,0.754,462.924,485.581)"><stop offset="0" style="stop-color:rgb(74,99,91);stop-opacity:1"/><stop offset="1" style="stop-color:rgb(41,47,43);stop-opacity:1"/></linearGradient>
        <linearGradient id="_Linear2" x1="0" y1="0" x2="1" y2="0" gradientUnits="userSpaceOnUse" gradientTransform="matrix(0.344,-22.11,22.11,0.344,463.119,485.91)"><stop offset="0" style="stop-color:rgb(74,99,91);stop-opacity:1"/><stop offset="1" style="stop-color:rgb(41,47,43);stop-opacity:1"/></linearGradient>
        <linearGradient id="_Linear3" x1="0" y1="0" x2="1" y2="0" gradientUnits="userSpaceOnUse" gradientTransform="matrix(-0.081,-22.827,22.827,-0.081,463.189,486.237)"><stop offset="0" style="stop-color:rgb(74,99,91);stop-opacity:1"/><stop offset="1" style="stop-color:rgb(41,47,43);stop-opacity:1"/></linearGradient>
        <linearGradient id="_Linear4" x1="0" y1="0" x2="1" y2="0" gradientUnits="userSpaceOnUse" gradientTransform="matrix(-0.517,-23.533,23.533,-0.517,463.708,486.622)"><stop offset="0" style="stop-color:rgb(74,99,91);stop-opacity:1"/><stop offset="1" style="stop-color:rgb(41,47,43);stop-opacity:1"/></linearGradient>
        <linearGradient id="_Linear5" x1="0" y1="0" x2="1" y2="0" gradientUnits="userSpaceOnUse" gradientTransform="matrix(-0.968,-24.233,24.233,-0.968,463.757,486.893)"><stop offset="0" style="stop-color:rgb(74,99,91);stop-opacity:1"/><stop offset="1" style="stop-color:rgb(41,47,43);stop-opacity:1"/></linearGradient>
        <linearGradient id="_Linear6" x1="0" y1="0" x2="1" y2="0" gradientUnits="userSpaceOnUse" gradientTransform="matrix(-1.434,-24.924,24.924,-1.434,464.009,487.359)"><stop offset="0" style="stop-color:rgb(74,99,91);stop-opacity:1"/><stop offset="1" style="stop-color:rgb(41,47,43);stop-opacity:1"/></linearGradient>
        <linearGradient id="_Linear7" x1="0" y1="0" x2="1" y2="0" gradientUnits="userSpaceOnUse" gradientTransform="matrix(-1.937,-25.962,25.962,-1.937,464.467,487.859)"><stop offset="0" style="stop-color:rgb(74,99,91);stop-opacity:1"/><stop offset="1" style="stop-color:rgb(41,47,43);stop-opacity:1"/></linearGradient>
        <linearGradient id="_Linear8" x1="0" y1="0" x2="1" y2="0" gradientUnits="userSpaceOnUse" gradientTransform="matrix(-2.466,-26.991,26.991,-2.466,464.703,488.411)"><stop offset="0" style="stop-color:rgb(74,99,91);stop-opacity:1"/><stop offset="1" style="stop-color:rgb(41,47,43);stop-opacity:1"/></linearGradient>
        <linearGradient id="_Linear9" x1="0" y1="0" x2="1" y2="0" gradientUnits="userSpaceOnUse" gradientTransform="matrix(-3.021,-28.012,28.012,-3.021,464.83,488.938)"><stop offset="0" style="stop-color:rgb(74,99,91);stop-opacity:1"/><stop offset="1" style="stop-color:rgb(41,47,43);stop-opacity:1"/></linearGradient>
        <linearGradient id="_Linear10" x1="0" y1="0" x2="1" y2="0" gradientUnits="userSpaceOnUse" gradientTransform="matrix(-3.6,-29.023,29.023,-3.6,465.201,489.21)"><stop offset="0" style="stop-color:rgb(74,99,91);stop-opacity:1"/><stop offset="1" style="stop-color:rgb(41,47,43);stop-opacity:1"/></linearGradient>
        <linearGradient id="_Linear11" x1="0" y1="0" x2="1" y2="0" gradientUnits="userSpaceOnUse" gradientTransform="matrix(-4.258,-30.377,30.377,-4.258,465.266,490.011)"><stop offset="0" style="stop-color:rgb(74,99,91);stop-opacity:1"/><stop offset="1" style="stop-color:rgb(41,47,43);stop-opacity:1"/></linearGradient>
        <linearGradient id="_Linear12" x1="0" y1="0" x2="1" y2="0" gradientUnits="userSpaceOnUse" gradientTransform="matrix(-4.948,-31.714,31.714,-4.948,465.888,490.649)"><stop offset="0" style="stop-color:rgb(74,99,91);stop-opacity:1"/><stop offset="1" style="stop-color:rgb(41,47,43);stop-opacity:1"/></linearGradient>
        <linearGradient id="_Linear13" x1="0" y1="0" x2="1" y2="0" gradientUnits="userSpaceOnUse" gradientTransform="matrix(-5.677,-33.039,33.039,-5.677,466.335,491.466)"><stop offset="0" style="stop-color:rgb(74,99,91);stop-opacity:1"/><stop offset="1" style="stop-color:rgb(41,47,43);stop-opacity:1"/></linearGradient>
        <linearGradient id="_Linear14" x1="0" y1="0" x2="1" y2="0" gradientUnits="userSpaceOnUse" gradientTransform="matrix(-6.444,-34.352,34.352,-6.444,466.519,492.111)"><stop offset="0" style="stop-color:rgb(74,99,91);stop-opacity:1"/><stop offset="1" style="stop-color:rgb(41,47,43);stop-opacity:1"/></linearGradient>
        <linearGradient id="_Linear15" x1="0" y1="0" x2="1" y2="0" gradientUnits="userSpaceOnUse" gradientTransform="matrix(-7.317,-36,36,-7.317,466.94,492.791)"><stop offset="0" style="stop-color:rgb(74,99,91);stop-opacity:1"/><stop offset="1" style="stop-color:rgb(41,47,43);stop-opacity:1"/></linearGradient>
        <linearGradient id="_Linear16" x1="0" y1="0" x2="1" y2="0" gradientUnits="userSpaceOnUse" gradientTransform="matrix(-8.317,-37.974,37.974,-8.317,467.526,493.819)"><stop offset="0" style="stop-color:rgb(74,99,91);stop-opacity:1"/><stop offset="1" style="stop-color:rgb(41,47,43);stop-opacity:1"/></linearGradient>
        <linearGradient id="_Linear17" x1="0" y1="0" x2="1" y2="0" gradientUnits="userSpaceOnUse" gradientTransform="matrix(-9.379,-39.93,39.93,-9.379,467.881,494.81)"><stop offset="0" style="stop-color:rgb(74,99,91);stop-opacity:1"/><stop offset="1" style="stop-color:rgb(41,47,43);stop-opacity:1"/></linearGradient>
        <linearGradient id="_Linear18" x1="0" y1="0" x2="1" y2="0" gradientUnits="userSpaceOnUse" gradientTransform="matrix(-10.5,-41.86,41.86,-10.5,468.443,495.792)"><stop offset="0" style="stop-color:rgb(74,99,91);stop-opacity:1"/><stop offset="1" style="stop-color:rgb(41,47,43);stop-opacity:1"/></linearGradient>
        <linearGradient id="_Linear19" x1="0" y1="0" x2="1" y2="0" gradientUnits="userSpaceOnUse" gradientTransform="matrix(-11.772,-44.106,44.106,-11.772,469.286,496.841)"><stop offset="0" style="stop-color:rgb(74,99,91);stop-opacity:1"/><stop offset="1" style="stop-color:rgb(41,47,43);stop-opacity:1"/></linearGradient>
        <linearGradient id="_Linear20" x1="0" y1="0" x2="1" y2="0" gradientUnits="userSpaceOnUse" gradientTransform="matrix(-13.122,-46.326,46.326,-13.122,469.859,497.968)"><stop offset="0" style="stop-color:rgb(74,99,91);stop-opacity:1"/><stop offset="1" style="stop-color:rgb(41,47,43);stop-opacity:1"/></linearGradient>
        <linearGradient id="_Linear21" x1="0" y1="0" x2="1" y2="0" gradientUnits="userSpaceOnUse" gradientTransform="matrix(-14.753,-49.193,49.193,-14.753,470.688,499.541)"><stop offset="0" style="stop-color:rgb(74,99,91);stop-opacity:1"/><stop offset="1" style="stop-color:rgb(41,47,43);stop-opacity:1"/></linearGradient>
        <linearGradient id="_Linear22" x1="0" y1="0" x2="1" y2="0" gradientUnits="userSpaceOnUse" gradientTransform="matrix(-16.371,-51.68,51.68,-16.371,471.506,500.674)"><stop offset="0" style="stop-color:rgb(74,99,91);stop-opacity:1"/><stop offset="1" style="stop-color:rgb(41,47,43);stop-opacity:1"/></linearGradient>
        <linearGradient id="_Linear23" x1="0" y1="0" x2="1" y2="0" gradientUnits="userSpaceOnUse" gradientTransform="matrix(-18.312,-54.798,54.798,-18.312,472.472,502.429)"><stop offset="0" style="stop-color:rgb(74,99,91);stop-opacity:1"/><stop offset="1" style="stop-color:rgb(41,47,43);stop-opacity:1"/></linearGradient>
        <linearGradient id="_Linear24" x1="0" y1="0" x2="1" y2="0" gradientUnits="userSpaceOnUse" gradientTransform="matrix(-20.478,-58.204,58.204,-20.478,473.548,503.866)"><stop offset="0" style="stop-color:rgb(74,99,91);stop-opacity:1"/><stop offset="1" style="stop-color:rgb(41,47,43);stop-opacity:1"/></linearGradient>
        <linearGradient id="_Linear25" x1="0" y1="0" x2="1" y2="0" gradientUnits="userSpaceOnUse" gradientTransform="matrix(-22.778,-61.541,61.541,-22.778,474.827,505.62)"><stop offset="0" style="stop-color:rgb(74,99,91);stop-opacity:1"/><stop offset="1" style="stop-color:rgb(41,47,43);stop-opacity:1"/></linearGradient>
        <linearGradient id="_Linear26" x1="0" y1="0" x2="1" y2="0" gradientUnits="userSpaceOnUse" gradientTransform="matrix(-25.476,-65.479,65.479,-25.476,476.011,507.781)"><stop offset="0" style="stop-color:rgb(74,99,91);stop-opacity:1"/><stop offset="1" style="stop-color:rgb(41,47,43);stop-opacity:1"/></linearGradient>
        <linearGradient id="_Linear27" x1="0" y1="0" x2="1" y2="0" gradientUnits="userSpaceOnUse" gradientTransform="matrix(-28.461,-69.663,69.663,-28.461,477.543,509.761)"><stop offset="0" style="stop-color:rgb(74,99,91);stop-opacity:1"/><stop offset="1" style="stop-color:rgb(41,47,43);stop-opacity:1"/></linearGradient>
        <linearGradient id="_Linear28" x1="0" y1="0" x2="1" y2="0" gradientUnits="userSpaceOnUse" gradientTransform="matrix(-31.903,-74.407,74.407,-31.903,479.365,511.994)"><stop offset="0" style="stop-color:rgb(74,99,91);stop-opacity:1"/><stop offset="1" style="stop-color:rgb(41,47,43);stop-opacity:1"/></linearGradient>
        <linearGradient id="_Linear29" x1="0" y1="0" x2="1" y2="0" gradientUnits="userSpaceOnUse" gradientTransform="matrix(-35.559,-79.032,79.032,-35.559,481.17,514.411)"><stop offset="0" style="stop-color:rgb(74,99,91);stop-opacity:1"/><stop offset="1" style="stop-color:rgb(41,47,43);stop-opacity:1"/></linearGradient>
        <linearGradient id="_Linear30" x1="0" y1="0" x2="1" y2="0" gradientUnits="userSpaceOnUse" gradientTransform="matrix(-39.886,-84.497,84.497,-39.886,483.405,517.21)"><stop offset="0" style="stop-color:rgb(74,99,91);stop-opacity:1"/><stop offset="1" style="stop-color:rgb(41,47,43);stop-opacity:1"/></linearGradient>
        <linearGradient id="_Linear31" x1="0" y1="0" x2="1" y2="0" gradientUnits="userSpaceOnUse" gradientTransform="matrix(-44.791,-90.449,90.449,-44.791,485.685,520.208)"><stop offset="0" style="stop-color:rgb(74,99,91);stop-opacity:1"/><stop offset="1" style="stop-color:rgb(41,47,43);stop-opacity:1"/></linearGradient>
        <linearGradient id="_Linear32" x1="0" y1="0" x2="1" y2="0" gradientUnits="userSpaceOnUse" gradientTransform="matrix(-50.153,-96.531,96.531,-50.153,488.274,523.2)"><stop offset="0" style="stop-color:rgb(74,99,91);stop-opacity:1"/><stop offset="1" style="stop-color:rgb(41,47,43);stop-opacity:1"/></linearGradient>
        <linearGradient id="_Linear33" x1="0" y1="0" x2="1" y2="0" gradientUnits="userSpaceOnUse" gradientTransform="matrix(-56.516,-103.648,103.648,-56.516,491.485,526.751)"><stop offset="0" style="stop-color:rgb(74,99,91);stop-opacity:1"/><stop offset="1" style="stop-color:rgb(41,47,43);stop-opacity:1"/></linearGradient>
        <linearGradient id="_Linear34" x1="0" y1="0" x2="1" y2="0" gradientUnits="userSpaceOnUse" gradientTransform="matrix(-63.434,-110.811,110.811,-63.434,494.98,530.218)"><stop offset="0" style="stop-color:rgb(74,99,91);stop-opacity:1"/><stop offset="1" style="stop-color:rgb(41,47,43);stop-opacity:1"/></linearGradient>
        <linearGradient id="_Linear35" x1="0" y1="0" x2="1" y2="0" gradientUnits="userSpaceOnUse" gradientTransform="matrix(-71.504,-118.883,118.883,-71.504,499.215,534.419)"><stop offset="0" style="stop-color:rgb(74,99,91);stop-opacity:1"/><stop offset="1" style="stop-color:rgb(41,47,43);stop-opacity:1"/></linearGradient>
        <linearGradient id="_Linear36" x1="0" y1="0" x2="1" y2="0" gradientUnits="userSpaceOnUse" gradientTransform="matrix(-80.808,-127.814,127.814,-80.808,503.786,538.649)"><stop offset="0" style="stop-color:rgb(74,99,91);stop-opacity:1"/><stop offset="1" style="stop-color:rgb(41,47,43);stop-opacity:1"/></linearGradient>
        <linearGradient id="_Linear37" x1="0" y1="0" x2="1" y2="0" gradientUnits="userSpaceOnUse" gradientTransform="matrix(-91.269,-137.189,137.189,-91.269,508.908,543.374)"><stop offset="0" style="stop-color:rgb(74,99,91);stop-opacity:1"/><stop offset="1" style="stop-color:rgb(41,47,43);stop-opacity:1"/></linearGradient>
        <linearGradient id="_Linear38" x1="0" y1="0" x2="1" y2="0" gradientUnits="userSpaceOnUse" gradientTransform="matrix(-103.364,-147.503,147.503,-103.364,514.904,548.589)"><stop offset="0" style="stop-color:rgb(74,99,91);stop-opacity:1"/><stop offset="1" style="stop-color:rgb(41,47,43);stop-opacity:1"/></linearGradient>
        <linearGradient id="_Linear39" x1="0" y1="0" x2="1" y2="0" gradientUnits="userSpaceOnUse" gradientTransform="matrix(-117.004,-158.323,158.323,-117.004,521.905,554.112)"><stop offset="0" style="stop-color:rgb(74,99,91);stop-opacity:1"/><stop offset="1" style="stop-color:rgb(41,47,43);stop-opacity:1"/></linearGradient>
        <linearGradient id="_Linear40" x1="0" y1="0" x2="1" y2="0" gradientUnits="userSpaceOnUse" gradientTransform="matrix(-132.945,-170.392,170.392,-132.945,529.935,560.007)"><stop offset="0" style="stop-color:rgb(74,99,91);stop-opacity:1"/><stop offset="1" style="stop-color:rgb(41,47,43);stop-opacity:1"/></linearGradient>
        <linearGradient id="_Linear41" x1="0" y1="0" x2="1" y2="0" gradientUnits="userSpaceOnUse" gradientTransform="matrix(-150.934,-182.938,182.938,-150.934,538.886,566.405)"><stop offset="0" style="stop-color:rgb(74,99,91);stop-opacity:1"/><stop offset="1" style="stop-color:rgb(41,47,43);stop-opacity:1"/></linearGradient>
        <linearGradient id="_Linear42" x1="0" y1="0" x2="1" y2="0" gradientUnits="userSpaceOnUse" gradientTransform="matrix(-171.761,-196.596,196.596,-171.761,549.299,573.128)"><stop offset="0" style="stop-color:rgb(74,99,91);stop-opacity:1"/><stop offset="1" style="stop-color:rgb(41,47,43);stop-opacity:1"/></linearGradient>
        <linearGradient id="_Linear43" x1="0" y1="0" x2="1" y2="0" gradientUnits="userSpaceOnUse" gradientTransform="matrix(-195.643,-211.095,211.095,-195.643,561.173,580.418)"><stop offset="0" style="stop-color:rgb(74,99,91);stop-opacity:1"/><stop offset="1" style="stop-color:rgb(41,47,43);stop-opacity:1"/></linearGradient>
        <linearGradient id="_Linear44" x1="0" y1="0" x2="1" y2="0" gradientUnits="userSpaceOnUse" gradientTransform="matrix(-222.986,-226.381,226.381,-222.986,574.993,588.16)"><stop offset="0" style="stop-color:rgb(74,99,91);stop-opacity:1"/><stop offset="1" style="stop-color:rgb(41,47,43);stop-opacity:1"/></linearGradient>
        <linearGradient id="_Linear45" x1="0" y1="0" x2="1" y2="0" gradientUnits="userSpaceOnUse" gradientTransform="matrix(-254.236,-242.434,242.434,-254.236,590.461,596.082)"><stop offset="0" style="stop-color:rgb(74,99,91);stop-opacity:1"/><stop offset="1" style="stop-color:rgb(41,47,43);stop-opacity:1"/></linearGradient>
        <linearGradient id="_Linear46" x1="0" y1="0" x2="1" y2="0" gradientUnits="userSpaceOnUse" gradientTransform="matrix(-289.851,-259.052,259.052,-289.851,608.298,604.426)"><stop offset="0" style="stop-color:rgb(74,99,91);stop-opacity:1"/><stop offset="1" style="stop-color:rgb(41,47,43);stop-opacity:1"/></linearGradient>
        <linearGradient id="_Linear47" x1="0" y1="0" x2="1" y2="0" gradientUnits="userSpaceOnUse" gradientTransform="matrix(-330.816,-276.534,276.534,-330.816,628.841,613.121)"><stop offset="0" style="stop-color:rgb(74,99,91);stop-opacity:1"/><stop offset="1" style="stop-color:rgb(41,47,43);stop-opacity:1"/></linearGradient>
        <linearGradient id="_Linear48" x1="0" y1="0" x2="1" y2="0" gradientUnits="userSpaceOnUse" gradientTransform="matrix(-377.117,-294.161,294.161,-377.117,651.868,622.068)"><stop offset="0" style="stop-color:rgb(74,99,91);stop-opacity:1"/><stop offset="1" style="stop-color:rgb(41,47,43);stop-opacity:1"/></linearGradient>
        <linearGradient id="_Linear49" x1="0" y1="0" x2="1" y2="0" gradientUnits="userSpaceOnUse" gradientTransform="matrix(-429.678,-312.032,312.032,-429.678,678.355,630.954)"><stop offset="0" style="stop-color:rgb(74,99,91);stop-opacity:1"/><stop offset="1" style="stop-color:rgb(41,47,43);stop-opacity:1"/></linearGradient>
        <linearGradient id="_Linear50" x1="0" y1="0" x2="1" y2="0" gradientUnits="userSpaceOnUse" gradientTransform="matrix(-489.064,-329.876,329.876,-489.064,707.791,639.889)"><stop offset="0" style="stop-color:rgb(74,99,91);stop-opacity:1"/><stop offset="1" style="stop-color:rgb(41,47,43);stop-opacity:1"/></linearGradient>
        <linearGradient id="_Linear51" x1="0" y1="0" x2="1" y2="0" gradientUnits="userSpaceOnUse" gradientTransform="matrix(327.759,-567.696,567.696,327.759,299.455,758.715)"><stop offset="0" style="stop-color:rgb(74,99,91);stop-opacity:1"/><stop offset="1" style="stop-color:rgb(41,47,43);stop-opacity:1"/></linearGradient>
    </defs>
</svg>
